<?xml version="1.0" encoding="UTF-8"?>
<svg version="1.1" xmlns="http://www.w3.org/2000/svg" width="128" height="128">
<path d="M0 0 C0.97338821 0.33408875 1.94677643 0.66817749 2.94966125 1.01239014 C6.11955233 2.10797366 9.26699688 3.25462346 12.4140625 4.4140625 C13.55032074 4.82917084 14.68657898 5.24427917 15.85726929 5.67196655 C18.23620198 6.54217692 20.61433695 7.41457093 22.99169922 8.2890625 C26.64737953 9.63322879 30.30589488 10.9694475 33.96484375 12.3046875 C36.28141989 13.15318213 38.59783222 14.00212417 40.9140625 14.8515625 C42.01183014 15.25259186 43.10959778 15.65362122 44.2406311 16.06680298 C45.74887955 16.6227565 45.74887955 16.6227565 47.28759766 17.18994141 C48.62016098 17.67933701 48.62016098 17.67933701 49.97964478 18.17861938 C52 19 52 19 53 20 C53.04080783 21.99958364 53.04254356 24.00045254 53 26 C47.375 29 47.375 29 44 29 C43.89475931 33.6605492 43.85688367 38.31535769 43.87792969 42.97705078 C43.87599829 44.55790348 43.85654424 46.13884564 43.81835938 47.71923828 C43.43919809 57.49860071 43.43919809 57.49860071 47.30175781 66.15722656 C49.99204831 68.80324488 49.99204831 68.80324488 52.85205078 70.94384766 C55 73 55 73 55.44262695 75.62011719 C54.78495238 79.15625165 52.77677389 80.34851222 50.0625 82.625 C46.09258829 86.34365148 44.33821183 88.51665081 44 94 C44.020625 94.9075 44.04125 95.815 44.0625 96.75 C44 99 44 99 42 101 C37.44444444 100.44444444 37.44444444 100.44444444 36 99 C36.01160156 98.28972656 36.02320312 97.57945313 36.03515625 96.84765625 C36.08265139 92.00993704 35.8624623 89.04643463 32.7109375 85.22265625 C30.90277634 83.52909686 29.05051896 81.88108042 27.15234375 80.2890625 C25 78 25 78 24.55737305 75.62792969 C25.18422417 71.90623883 27.01327295 70.98050551 29.9296875 68.6640625 C34.4221274 64.39347149 35.75909853 61.64962686 36.1953125 55.4609375 C36.25446913 52.76083047 36.19946162 50.07423384 36.125 47.375 C36.12305366 45.97525935 36.12562605 44.57550481 36.1328125 43.17578125 C36.1328125 39.78104821 36.08746906 36.39341636 36 33 C33.36 33.66 30.72 34.32 28 35 C28.02618408 35.76143311 28.05236816 36.52286621 28.0793457 37.30737305 C28.18347015 40.76720435 28.24837729 44.22670585 28.3125 47.6875 C28.35439453 48.88568359 28.39628906 50.08386719 28.43945312 51.31835938 C28.56337978 60.21629331 28.56337978 60.21629331 25.72265625 64.16796875 C24.82417969 64.77253906 23.92570312 65.37710938 23 66 C22.36320312 66.48726563 21.72640625 66.97453125 21.0703125 67.4765625 C6.0238697 76.35940222 -15.35483183 76.13004204 -31.9375 71.984375 C-38.43590033 69.89560347 -44.58852338 67.37417704 -49 62 C-49.45410156 59.06738281 -49.45410156 59.06738281 -49.390625 55.703125 C-49.37128906 53.89521484 -49.37128906 53.89521484 -49.3515625 52.05078125 C-49.31804688 50.79652344 -49.28453125 49.54226562 -49.25 48.25 C-49.23195313 46.98027344 -49.21390625 45.71054687 -49.1953125 44.40234375 C-49.14817153 41.26746923 -49.08237664 38.1341144 -49 35 C-49.63993896 34.8138916 -50.27987793 34.6277832 -50.93920898 34.43603516 C-56.06547814 32.92524542 -61.08130337 31.31048284 -66.0625 29.375 C-67.16722656 28.94960938 -68.27195312 28.52421875 -69.41015625 28.0859375 C-72 27 -72 27 -73 26 C-73.04080783 24.00041636 -73.04254356 21.99954746 -73 20 C-61.88065457 15.30454677 -50.65558146 10.95655053 -39.33666992 6.76757812 C-37.06426416 5.92017952 -34.79632291 5.06071433 -32.53295898 4.18945312 C-29.2289527 2.91932426 -25.91202964 1.69040755 -22.58984375 0.46875 C-21.59057358 0.07522339 -20.59130341 -0.31830322 -19.56175232 -0.72375488 C-12.05634136 -3.41267332 -7.36707363 -2.78545512 0 0 Z M-15.25024414 7.43701172 C-16.12777847 7.75088837 -17.00531281 8.06476501 -17.90943909 8.38815308 C-18.85842575 8.73185944 -19.80741241 9.0755658 -20.78515625 9.4296875 C-22.24229286 9.95527756 -22.24229286 9.95527756 -23.72886658 10.4914856 C-25.78479776 11.23461266 -27.84008396 11.97952617 -29.89477539 12.72607422 C-33.05021483 13.8705442 -36.20952561 15.00383614 -39.36914062 16.13671875 C-41.3622272 16.85869066 -43.35507409 17.58132463 -45.34765625 18.3046875 C-46.77417259 18.81417435 -46.77417259 18.81417435 -48.22950745 19.33395386 C-49.10388962 19.65413483 -49.97827179 19.9743158 -50.87915039 20.30419922 C-51.65255264 20.58399628 -52.4259549 20.86379333 -53.22279358 21.15206909 C-55.18958567 21.8669404 -55.18958567 21.8669404 -56 24 C-49.85088705 26.31681096 -43.69381951 28.61141503 -37.53076172 30.89086914 C-35.4357711 31.66867047 -33.34264365 32.45150969 -31.25146484 33.23950195 C-28.24273403 34.37224265 -25.22773591 35.48660969 -22.2109375 36.59765625 C-21.27945892 36.952798 -20.34798035 37.30793976 -19.38827515 37.67384338 C-10.54700829 40.89126278 -4.98308667 38.80549276 3.5546875 35.62109375 C4.45623566 35.28956802 5.35778381 34.9580423 6.28665161 34.61647034 C9.15129084 33.56176917 12.01315267 32.49975039 14.875 31.4375 C16.82273764 30.71891561 18.77065247 30.00081129 20.71875 29.28320312 C25.4812368 27.52768905 30.24124713 25.76560943 35 24 C35 23.34 35 22.68 35 22 C28.77197959 19.71687046 22.54215601 17.43871658 16.31103516 15.1640625 C14.19017043 14.38917491 12.06972583 13.61313646 9.94970703 12.8359375 C6.90766574 11.72094901 3.86415241 10.61006743 0.8203125 9.5 C-0.60787308 8.9750293 -0.60787308 8.9750293 -2.06491089 8.43945312 C-2.94567291 8.11912109 -3.82643494 7.79878906 -4.73388672 7.46875 C-5.51110077 7.18451172 -6.28831482 6.90027344 -7.08908081 6.60742188 C-10.28261064 5.5922979 -12.17219993 6.33092498 -15.25024414 7.43701172 Z M-41 38 C-41 44.6 -41 51.2 -41 58 C-26.51306838 66.73814923 -9.3870672 67.76782932 7 64 C13.55665812 61.967543 13.55665812 61.967543 19 58 C19.27686065 55.96532566 19.27686065 55.96532566 19.1953125 53.6484375 C19.18564453 52.37226562 19.18564453 52.37226562 19.17578125 51.0703125 C19.15902344 50.18085937 19.14226562 49.29140625 19.125 48.375 C19.11597656 47.4778125 19.10695312 46.580625 19.09765625 45.65625 C19.0740497 43.43723414 19.0411231 41.21874923 19 39 C15.40331146 39.63356741 12.14198201 40.59640562 8.7265625 41.8828125 C7.7365625 42.24503906 6.7465625 42.60726562 5.7265625 42.98046875 C3.66317142 43.74189644 1.60321786 44.51270667 -0.453125 45.29296875 C-11.2539069 49.20649882 -17.9825868 46.48174662 -28.375 42.4375 C-30.54900723 41.60163608 -32.72346138 40.76693331 -34.8984375 39.93359375 C-35.85411621 39.56290771 -36.80979492 39.19222168 -37.79443359 38.81030273 C-39.76482528 37.94252451 -39.76482528 37.94252451 -41 38 Z M39 71 C37.61767557 72.62626404 36.28062485 74.2925002 35 76 C36.32 77.32 37.64 78.64 39 80 C42.16115776 78.63016497 42.9927092 78.0109362 45 75 C43.71034824 73.62437146 42.37310707 72.29233607 41 71 C40.34 71 39.68 71 39 71 Z " fill="#000000" transform="translate(73,15)"/>
</svg>
