<?xml version="1.0" encoding="UTF-8"?>
<svg version="1.1" xmlns="http://www.w3.org/2000/svg" width="128" height="128">
<path d="M0 0 C0.73336075 -0.00428513 1.4667215 -0.00857025 2.2223053 -0.01298523 C3.76790335 -0.01870841 5.31352833 -0.01924366 6.85913086 -0.01489258 C9.21189737 -0.0117332 11.56340436 -0.03521295 13.91601562 -0.06054688 C15.42317551 -0.0628203 16.93033875 -0.06352316 18.4375 -0.0625 C19.13455551 -0.07170975 19.83161102 -0.08091949 20.54978943 -0.09040833 C25.9952591 -0.03933473 30.08162097 1.24921392 34.09765625 4.98828125 C35.82092381 8.34411808 35.87159934 11.55600442 36.28515625 15.30078125 C37.85982666 15.2850708 37.85982666 15.2850708 39.46630859 15.26904297 C43.35380658 15.23289672 47.24128966 15.20990047 51.12890625 15.19091797 C52.81285091 15.18084808 54.49677804 15.16719137 56.18066406 15.14990234 C58.59835126 15.12569699 61.01580768 15.11430829 63.43359375 15.10546875 C64.18885345 15.09514618 64.94411316 15.08482361 65.72225952 15.07418823 C67.57809605 15.07378807 69.43334905 15.17855409 71.28515625 15.30078125 C73.87524197 17.89086697 73.53842978 19.67543194 73.57843018 23.20559692 C73.57707062 24.44537796 73.57707062 24.44537796 73.57568359 25.71020508 C73.58240082 26.58028702 73.58911804 27.45036896 73.59603882 28.34681702 C73.61509404 31.23387304 73.61894704 34.12069744 73.62109375 37.0078125 C73.62751737 39.01079912 73.6342454 41.01378479 73.64126587 43.01676941 C73.65325811 47.22091853 73.65694479 51.42498537 73.65576172 55.62915039 C73.65555863 61.01635806 73.68284167 66.40303758 73.71730614 71.79012012 C73.73954725 75.92940187 73.74360008 80.06855608 73.74254227 84.20789146 C73.74490317 86.19382227 73.75375411 88.17975634 73.769207 90.16562843 C73.78880682 92.94518549 73.78305222 95.72359828 73.77099609 98.50317383 C73.78223511 99.32362183 73.79347412 100.14406982 73.80505371 100.98937988 C73.76338518 104.77058668 73.52563365 106.87588375 71.62979126 110.22563171 C66.12153656 115.10078377 59.76565903 114.59309433 52.80102539 114.57543945 C51.23649879 114.58310585 51.23649879 114.58310585 49.6403656 114.59092712 C46.20028917 114.60480159 42.76041355 114.60386801 39.3203125 114.6015625 C36.92426987 114.60545043 34.52822794 114.6097853 32.13218689 114.61454773 C27.11292282 114.62200521 22.09372909 114.62172192 17.07446289 114.61645508 C10.64738242 114.61065933 4.22059001 114.62759658 -2.20644283 114.65079975 C-7.15387145 114.66554179 -12.10123075 114.66640816 -17.04867744 114.66329002 C-19.41811252 114.66380294 -21.78755151 114.66903502 -24.15696526 114.67910194 C-27.47193936 114.69145859 -30.78635302 114.68467895 -34.10131836 114.6730957 C-35.07660492 114.68073944 -36.05189148 114.68838318 -37.05673218 114.69625854 C-43.54919364 114.64619683 -48.52828997 114.03873178 -53.6290741 109.65603638 C-55.28721199 106.05919817 -55.12317581 102.49962492 -55.0871582 98.61669922 C-55.09080887 97.74150635 -55.09445953 96.86631348 -55.09822083 95.96459961 C-55.10632231 93.0738582 -55.0927217 90.18367793 -55.078125 87.29296875 C-55.07760644 85.28565471 -55.07812398 83.27834015 -55.07963562 81.27102661 C-55.07954592 77.06618663 -55.06911931 72.86153847 -55.05102539 68.65673828 C-55.02830915 63.2582185 -55.02779964 57.85997833 -55.03454304 52.46142387 C-55.03787852 48.3179779 -55.03126136 44.17459608 -55.0214138 40.03116226 C-55.01755644 38.03998271 -55.0164158 36.04879603 -55.01799965 34.05761337 C-55.01836907 31.28029431 -55.00578577 28.50333884 -54.98950195 25.72607422 C-54.99197937 24.89798248 -54.99445679 24.06989075 -54.99700928 23.21670532 C-54.94358803 17.52952553 -54.94358803 17.52952553 -52.71484375 15.30078125 C-50.06192618 15.12567739 -47.51498201 15.06922642 -44.86328125 15.10546875 C-44.08924957 15.10829865 -43.3152179 15.11112854 -42.51773071 15.11404419 C-40.04161218 15.12525371 -37.56585325 15.15035922 -35.08984375 15.17578125 C-33.41276563 15.18581007 -31.73568186 15.19493609 -30.05859375 15.203125 C-25.94387152 15.22519551 -21.82941864 15.25973023 -17.71484375 15.30078125 C-17.5859375 14.04007813 -17.45703125 12.779375 -17.32421875 11.48046875 C-16.90318065 7.36271618 -15.78967829 5.20479165 -12.71484375 2.30078125 C-8.53982319 0.14597763 -4.60492366 -0.00600355 0 0 Z M-8.71484375 10.30078125 C-8.71484375 11.95078125 -8.71484375 13.60078125 -8.71484375 15.30078125 C3.16515625 15.30078125 15.04515625 15.30078125 27.28515625 15.30078125 C27.28515625 13.65078125 27.28515625 12.00078125 27.28515625 10.30078125 C25.55222645 8.56785145 23.32301289 9.17258079 21.01367188 9.16183472 C20.27826172 9.16385895 19.54285156 9.16588318 18.78515625 9.16796875 C18.03427734 9.16701202 17.28339844 9.1660553 16.50976562 9.16506958 C14.91926998 9.16438787 13.32877158 9.16624153 11.73828125 9.17041016 C9.2955097 9.17575858 6.85292204 9.17046491 4.41015625 9.1640625 C2.86848918 9.16472328 1.32682222 9.16600445 -0.21484375 9.16796875 C-0.95025391 9.16594452 -1.68566406 9.16392029 -2.44335938 9.16183472 C-5.86730717 8.87021612 -5.86730717 8.87021612 -8.71484375 10.30078125 Z M-44.71484375 24.30078125 C-42.40545251 32.90896783 -42.40545251 32.90896783 -39.70703125 41.3359375 C-39.36027344 42.32916016 -39.01351562 43.32238281 -38.65625 44.34570312 C-38.30433594 45.34150391 -37.95242187 46.33730469 -37.58984375 47.36328125 C-37.05037109 48.90918945 -37.05037109 48.90918945 -36.5 50.48632812 C-34.81291927 55.478783 -34.81291927 55.478783 -32.71484375 60.30078125 C-25.12484375 60.30078125 -17.53484375 60.30078125 -9.71484375 60.30078125 C-9.38484375 58.32078125 -9.05484375 56.34078125 -8.71484375 54.30078125 C3.16515625 54.30078125 15.04515625 54.30078125 27.28515625 54.30078125 C27.78015625 57.27078125 27.78015625 57.27078125 28.28515625 60.30078125 C35.87515625 60.30078125 43.46515625 60.30078125 51.28515625 60.30078125 C54.56120698 51.72064839 57.74304502 43.13476123 60.66015625 34.42578125 C61.05388428 33.25813232 61.05388428 33.25813232 61.45556641 32.06689453 C62.80335373 28.2662401 62.80335373 28.2662401 63.28515625 24.30078125 C27.64515625 24.30078125 -7.99484375 24.30078125 -44.71484375 24.30078125 Z M-46.71484375 47.30078125 C-46.73799157 54.56772598 -46.75577131 61.83466279 -46.76665592 69.10163689 C-46.7718794 72.47581151 -46.77896736 75.84996096 -46.7902832 79.22412109 C-46.80236811 83.10124384 -46.80807638 86.97833065 -46.8125 90.85546875 C-46.81766129 92.07007782 -46.82282257 93.28468689 -46.82814026 94.53610229 C-46.82821579 95.65711334 -46.82829132 96.77812439 -46.82836914 97.93310547 C-46.83058975 98.92349823 -46.83281036 99.91389099 -46.83509827 100.93429565 C-46.87254529 103.31974898 -46.87254529 103.31974898 -45.71484375 105.30078125 C-9.41484375 105.30078125 26.88515625 105.30078125 64.28515625 105.30078125 C65.58179547 102.70750282 65.40519194 100.83670057 65.39868164 97.93310547 C65.39860611 96.81209442 65.39853058 95.69108337 65.39845276 94.53610229 C65.39329147 93.32149323 65.38813019 92.10688416 65.3828125 90.85546875 C65.38139755 89.61532013 65.3799826 88.37517151 65.37852478 87.09744263 C65.37386721 83.79959992 65.36488064 80.50180579 65.3538208 77.20397949 C65.34359356 73.83911738 65.33902434 70.47424817 65.33398438 67.109375 C65.32293894 60.50649132 65.30618872 53.90364026 65.28515625 47.30078125 C62.45241637 51.54989107 61.26210521 56.2108748 59.69921875 61.05078125 C58.24810567 64.38593618 57.40770434 65.56469274 54.28515625 67.30078125 C51.30147899 68.29534034 49.08473705 68.49637757 45.9609375 68.6171875 C44.93291016 68.65908203 43.90488281 68.70097656 42.84570312 68.74414062 C41.23791992 68.80311523 41.23791992 68.80311523 39.59765625 68.86328125 C38.51419922 68.90646484 37.43074219 68.94964844 36.31445312 68.99414062 C33.63814834 69.10024963 30.96175099 69.20230486 28.28515625 69.30078125 C27.95515625 71.28078125 27.62515625 73.26078125 27.28515625 75.30078125 C15.40515625 75.30078125 3.52515625 75.30078125 -8.71484375 75.30078125 C-9.20984375 72.33078125 -9.20984375 72.33078125 -9.71484375 69.30078125 C-10.38016113 69.28619873 -11.04547852 69.27161621 -11.73095703 69.2565918 C-14.76781489 69.1817676 -17.80361466 69.08522109 -20.83984375 68.98828125 C-21.8865625 68.96572266 -22.93328125 68.94316406 -24.01171875 68.91992188 C-34.1542379 68.5668595 -34.1542379 68.5668595 -38.71484375 65.30078125 C-40.0703125 63.35546875 -40.0703125 63.35546875 -40.90234375 61.17578125 C-41.21042969 60.39074219 -41.51851562 59.60570312 -41.8359375 58.796875 C-43.18005097 54.97959276 -44.50916475 51.16443441 -45.71484375 47.30078125 C-46.04484375 47.30078125 -46.37484375 47.30078125 -46.71484375 47.30078125 Z M-1.71484375 61.30078125 C-1.71484375 63.61078125 -1.71484375 65.92078125 -1.71484375 68.30078125 C5.54515625 68.30078125 12.80515625 68.30078125 20.28515625 68.30078125 C20.28515625 65.99078125 20.28515625 63.68078125 20.28515625 61.30078125 C13.02515625 61.30078125 5.76515625 61.30078125 -1.71484375 61.30078125 Z " fill="#000000" transform="translate(54.71484375,6.69921875)"/>
</svg>
